<?xml version="1.0" standalone="no"?>
<!DOCTYPE svg PUBLIC "-//W3C//DTD SVG 20010904//EN"
 "http://www.w3.org/TR/2001/REC-SVG-20010904/DTD/svg10.dtd">
<svg version="1.0" xmlns="http://www.w3.org/2000/svg"
 width="300.000000pt" height="65.000000pt" viewBox="0 0 300.000000 65.000000"
 preserveAspectRatio="xMidYMid meet">

<g transform="translate(0.000000,65.000000) scale(0.100000,-0.100000)"
fill="#000000" stroke="none">
<path d="M255 631 c-113 -28 -212 -144 -230 -272 -13 -90 35 -213 107 -274 42
-36 123 -73 168 -77 l35 -3 3 77 3 76 -28 6 c-73 16 -133 87 -133 156 0 69 52
137 123 160 l37 12 0 74 0 74 -27 -1 c-16 -1 -41 -4 -58 -8z"/>
<path d="M400 565 l0 -75 101 0 c146 0 169 18 102 81 -61 57 -87 69 -148 69
l-55 0 0 -75z"/>
<path d="M2436 450 c-88 -27 -121 -138 -66 -228 37 -61 144 -64 190 -5 25 33
26 53 0 53 -11 0 -20 -4 -20 -10 0 -22 -41 -50 -73 -50 -53 0 -81 37 -81 107
0 48 3 58 27 79 37 32 81 31 111 -1 24 -25 56 -34 56 -14 0 16 -56 69 -73 69
-9 0 -21 2 -29 4 -7 2 -26 0 -42 -4z"/>
<path d="M710 315 l0 -135 83 0 c101 0 140 19 156 77 15 52 14 76 -5 123 -22
55 -54 70 -154 70 l-80 0 0 -135z m147 53 c19 -15 16 -88 -4 -110 -9 -10 -27
-18 -40 -18 -22 0 -23 3 -23 76 l0 76 27 -7 c16 -4 34 -11 40 -17z"/>
<path d="M1048 434 c-75 -40 -78 -188 -6 -238 26 -18 128 -22 159 -6 16 9 49
58 49 74 0 2 -15 9 -32 15 -30 11 -34 9 -51 -14 -21 -29 -58 -33 -78 -8 -8 9
-14 35 -14 58 0 23 6 49 14 58 18 23 57 21 74 -3 12 -17 18 -18 50 -9 34 9 36
11 25 35 -7 14 -24 32 -39 40 -36 18 -116 17 -151 -2z"/>
<path d="M1314 315 l-52 -135 43 0 c35 0 45 4 50 20 5 16 15 20 55 20 39 0 49
-3 53 -20 4 -16 14 -20 50 -20 l45 0 -51 135 -50 135 -46 0 -46 0 -51 -135z
m113 5 l10 -40 -29 0 c-24 0 -29 4 -24 16 3 9 9 27 12 40 9 35 18 30 31 -16z"/>
<path d="M1580 316 l0 -136 45 0 45 0 0 55 c0 45 3 53 15 48 9 -3 27 -27 41
-54 24 -49 24 -49 75 -49 l50 0 -28 51 c-15 28 -34 54 -41 57 -10 3 -6 11 14
27 21 17 28 31 28 59 0 60 -19 70 -139 74 l-105 4 0 -136z m157 58 c7 -19 -13
-34 -44 -34 -18 0 -23 6 -23 25 0 21 5 25 30 25 19 0 33 -6 37 -16z"/>
<path d="M1852 433 c2 -13 15 -19 46 -21 l42 -3 0 -115 c0 -107 1 -114 20
-114 19 0 20 7 20 115 l0 115 45 0 c38 0 45 3 45 20 0 19 -7 20 -111 20 -100
0 -110 -2 -107 -17z"/>
<path d="M2100 315 l0 -135 105 0 c87 0 105 3 105 15 0 12 -16 15 -85 15 l-85
0 0 45 0 45 75 0 c68 0 75 2 75 20 0 18 -7 20 -75 20 l-75 0 0 35 0 35 80 0
c73 0 80 2 80 20 0 19 -7 20 -100 20 l-100 0 0 -135z"/>
<path d="M2620 315 c0 -128 1 -135 20 -135 18 0 20 7 20 60 l0 60 70 0 70 0 0
-60 c0 -53 2 -60 20 -60 19 0 20 7 20 135 0 128 -1 135 -20 135 -18 0 -20 -7
-20 -55 l0 -55 -70 0 -70 0 0 55 c0 48 -2 55 -20 55 -19 0 -20 -7 -20 -135z"/>
<path d="M265 375 c-14 -13 -25 -36 -25 -50 0 -14 11 -37 25 -50 24 -25 27
-25 187 -25 182 1 195 5 205 63 4 29 1 40 -20 61 -26 26 -27 26 -187 26 -158
0 -161 -1 -185 -25z"/>
<path d="M400 85 l0 -75 48 0 c53 0 113 32 167 89 29 32 29 33 11 47 -14 10
-49 14 -123 14 l-103 0 0 -75z"/>
<path d="M696 108 c-3 -13 -6 -29 -6 -35 0 -20 38 -15 60 7 22 22 40 19 41 -8
0 -11 4 -9 11 8 10 24 10 24 18 5 8 -19 9 -18 9 4 1 19 -3 22 -19 18 -11 -3
-20 -1 -20 3 0 16 -40 -3 -41 -19 -1 -9 -4 -5 -8 9 -9 33 -37 38 -45 8z m34 2
c0 -5 -4 -10 -10 -10 -5 0 -10 5 -10 10 0 6 5 10 10 10 6 0 10 -4 10 -10z m-5
-30 c-3 -5 -10 -10 -16 -10 -5 0 -9 5 -9 10 0 6 7 10 16 10 8 0 12 -4 9 -10z"/>
<path d="M1526 124 c6 -3 9 -17 7 -32 l-3 -27 10 25 c6 13 16 28 23 32 7 4 -1
7 -18 7 -16 0 -25 -3 -19 -5z"/>
<path d="M1220 102 c0 -11 -7 -22 -15 -26 -9 -3 -15 0 -15 8 0 8 6 17 13 19 7
4 6 6 -4 6 -19 1 -31 -20 -20 -37 11 -18 49 -2 54 22 3 17 5 15 6 -6 1 -28 14
-37 26 -18 4 7 11 7 18 2 7 -5 26 -8 42 -8 23 1 31 6 33 24 4 26 -15 29 -33 5
-9 -13 -14 -13 -20 -3 -5 9 -4 11 3 6 7 -4 12 -2 12 3 0 6 -7 11 -16 11 -12 0
-15 -6 -11 -22 l6 -23 -17 21 c-9 12 -27 25 -39 29 -18 5 -23 2 -23 -13z m50
-11 c0 -6 -4 -13 -10 -16 -5 -3 -10 1 -10 9 0 9 5 16 10 16 6 0 10 -4 10 -9z"/>
<path d="M1427 113 c-4 -3 -7 -16 -7 -28 0 -17 6 -22 25 -22 27 0 50 20 40 37
-8 13 -35 13 -35 -1 0 -5 5 -7 10 -4 6 3 10 -1 10 -11 0 -13 -3 -14 -14 -5
-11 9 -15 9 -20 -1 -3 -7 -3 -1 0 15 6 27 3 33 -9 20z"/>
<path d="M1650 100 c0 -25 -26 -26 -52 -3 -22 20 -45 5 -34 -22 5 -14 9 -15
20 -6 10 8 16 9 21 1 9 -15 23 -12 45 10 l20 20 1 -22 c0 -22 1 -22 9 -3 l9
20 1 -20 c1 -17 3 -17 12 5 10 24 10 24 18 5 8 -19 9 -18 9 4 1 19 -3 22 -21
18 -12 -3 -30 -2 -40 4 -15 8 -18 6 -18 -11z"/>
<path d="M1791 106 c-1 -15 -3 -16 -16 -6 -19 16 -41 -1 -32 -24 5 -12 12 -14
30 -7 16 6 28 6 35 -1 8 -8 15 -8 25 0 8 7 17 9 20 5 4 -3 7 1 7 10 0 10 5 17
10 17 15 0 12 -11 -7 -32 -14 -16 -14 -18 0 -18 8 0 20 12 26 28 l11 27 -4
-27 c-5 -38 10 -35 30 5 16 29 16 31 1 18 -11 -9 -17 -10 -17 -2 0 15 -43 14
-58 -1 -9 -9 -12 -9 -12 0 0 7 -7 12 -15 12 -8 0 -15 -5 -15 -11 0 -5 5 -7 10
-4 6 3 10 -1 10 -10 0 -21 -19 -9 -30 19 -8 18 -9 19 -9 2z m-21 -15 c0 -6 -4
-13 -10 -16 -5 -3 -10 1 -10 9 0 9 5 16 10 16 6 0 10 -4 10 -9z"/>
<path d="M847 103 c-11 -10 -8 -53 4 -53 6 0 18 7 26 16 12 11 18 12 23 4 5
-7 10 -3 14 12 7 22 7 22 16 3 8 -19 9 -19 9 3 1 13 -5 22 -14 22 -8 0 -15 -6
-15 -12 0 -10 -3 -9 -9 1 -7 11 -9 11 -14 0 -4 -10 -6 -10 -6 -1 -1 13 -23 17
-34 5z m23 -12 c0 -6 -4 -13 -10 -16 -5 -3 -10 1 -10 9 0 9 5 16 10 16 6 0 10
-4 10 -9z"/>
<path d="M956 98 c-8 -24 -3 -48 10 -48 12 0 24 22 24 46 0 17 -29 19 -34 2z
m24 -7 c0 -6 -4 -13 -10 -16 -5 -3 -10 1 -10 9 0 9 5 16 10 16 6 0 10 -4 10
-9z"/>
<path d="M1024 88 c1 -15 -2 -29 -8 -32 -7 -3 -7 -5 1 -5 7 -1 17 8 23 20 11
19 12 20 24 3 15 -20 36 -11 36 17 0 15 -6 19 -22 17 -13 -2 -28 -7 -35 -11
-6 -4 -14 -1 -17 5 -3 7 -4 1 -2 -14z m66 3 c0 -6 -4 -13 -10 -16 -5 -3 -10 1
-10 9 0 9 5 16 10 16 6 0 10 -4 10 -9z"/>
<path d="M1112 85 c0 -16 2 -22 5 -12 2 9 2 23 0 30 -3 6 -5 -1 -5 -18z"/>
<path d="M1136 94 c-4 -9 -4 -19 -1 -22 2 -3 7 3 11 12 4 9 4 19 1 22 -2 3 -7
-3 -11 -12z"/>
<path d="M1373 95 c-9 -24 1 -27 15 -5 8 13 8 20 2 20 -6 0 -13 -7 -17 -15z"/>
<path d="M1610 102 c0 -5 7 -9 15 -9 8 0 15 4 15 9 0 4 -7 8 -15 8 -8 0 -15
-4 -15 -8z"/>
<path d="M771 74 c0 -11 3 -14 6 -6 3 7 2 16 -1 19 -3 4 -6 -2 -5 -13z"/>
</g>
</svg>
